<svg width="49" height="42" viewBox="0 0 49 42" fill="none" xmlns="http://www.w3.org/2000/svg">
<path d="M14.2556 3.54997C12.285 3.54997 10.4414 3.87691 8.72502 4.53077C6.97684 5.15739 5.4591 6.0224 4.1718 7.1258C2.8845 8.2292 1.87532 9.53012 1.14426 11.0286C0.381422 12.4998 0 14.0799 0 15.7691C0 18.0576 0.746951 20.5232 2.24085 23.1659C3.73475 25.8086 5.37169 28.2606 7.15165 30.5219C8.93162 32.7832 10.5527 34.6767 12.0148 36.2024C13.5087 37.7008 14.2556 38.45 14.2556 38.45C14.2556 38.45 15.0026 37.7008 16.4965 36.2024C17.9586 34.6767 19.5796 32.7832 21.3596 30.5219C23.1396 28.2606 24.7765 25.8086 26.2704 23.1659C27.7643 20.5232 28.5113 18.0576 28.5113 15.7691C28.5113 14.0799 28.1298 12.4998 27.367 11.0286C26.6359 9.53012 25.6268 8.2292 24.3395 7.1258C23.0522 6.0224 21.5344 5.15739 19.7862 4.53077C18.0698 3.87691 16.2263 3.54997 14.2556 3.54997ZM14.2556 20.1418C12.8571 20.1418 11.6572 19.7127 10.656 18.8545C9.65473 17.9963 9.15412 16.9678 9.15412 15.7691C9.15412 14.5703 9.65473 13.5419 10.656 12.6837C11.6572 11.8255 12.8571 11.3964 14.2556 11.3964C15.6542 11.3964 16.8541 11.8255 17.8553 12.6837C18.8565 13.5419 19.3571 14.5703 19.3571 15.7691C19.3571 16.9678 18.8565 17.9963 17.8553 18.8545C16.8541 19.7127 15.6542 20.1418 14.2556 20.1418Z" fill="#FF2B3C"/>
</svg>
